# xmcd CD database file
#
# Track frame offsets:
#	150
#	13505
#	27554
#	45849
#	60729
#	68614
#	81887
#	88158
#	102023
#	109334
#	129255
#	143723
#	159672
#	166059
#	173799
#
# Disc length: 2497 seconds
#
# Revision: 1
# Processed by: cddbd v1.5.1PL0 Copyright (c) Steve Scherf et al.
# Submitted via: cdripper 1,0,15,908
#
DISCID=b709bf0f
DTITLE=Enya - The Celts
DYEAR=1992
DGENRE=New Age
TTITLE0=The Celts
TTITLE1=Aldebaran
TTITLE2=I Want Tomorrow
TTITLE3=March of the Celts
TTITLE4=Deireadh an Tuah
TTITLE5=The Sun in the Stream
TTITLE6=To Go Beyond 1
TTITLE7=Fairytale
TTITLE8=Epona
TTITLE9=Triad
TTITLE10=Portrait
TTITLE11=Boadicea
TTITLE12=Bard Dance
TTITLE13=Dan Y Dwr
TTITLE14=To Go Beyond 2
EXTD=YEAR: 1992
EXTT0=
EXTT1=
EXTT2=
EXTT3=
EXTT4=
EXTT5=
EXTT6=
EXTT7=
EXTT8=
EXTT9=
EXTT10=
EXTT11=
EXTT12=
EXTT13=
EXTT14=
PLAYORDER=
